<svg width="25" height="25" viewBox="0 0 25 25" fill="none" xmlns="http://www.w3.org/2000/svg">
<path d="M10.2875 5.19666C10.1058 4.69166 9.92251 4.1825 9.91918 4.17583C9.83168 3.98 9.62918 3.85666 9.41584 3.87833C9.28084 3.88916 6.08668 4.16416 4.04001 5.81C2.97001 6.79833 0.833344 12.5767 0.833344 17.5725C0.833344 17.6608 0.855844 17.7467 0.90001 17.8233C2.37584 20.415 6.39918 21.0933 7.31584 21.1225C7.32168 21.1233 7.32668 21.1233 7.33168 21.1233C7.49334 21.1233 7.64501 21.0458 7.74168 20.915L8.73334 19.5717C7.09501 19.3225 6.79918 18.9975 6.73001 18.9467C6.36001 18.6742 6.08668 18.2925 6.41834 17.8108C6.67334 17.4367 7.20834 17.3133 7.61834 17.5242C8.03834 17.72 9.16251 18.35 12.5 18.3333C15.8142 18.3233 17.2692 17.6292 17.29 17.6142C17.8467 17.3633 18.2808 17.4667 18.5517 17.8383C18.8742 18.3442 18.6442 18.6867 18.2758 18.9583C18.2067 19.0092 18.0392 19.1517 16.2792 19.5683L17.2583 20.9142C17.3542 21.0458 17.5067 21.1225 17.6683 21.1225C17.6742 21.1225 17.6792 21.1225 17.6842 21.1217C18.6017 21.0925 22.625 20.4142 24.1 17.8225C24.1442 17.7458 24.1667 17.66 24.1667 17.5717C24.1667 12.5767 22.03 6.79833 20.9333 5.78833C18.9133 4.165 15.7192 3.89 15.5842 3.87833C15.3708 3.86 15.1683 3.98083 15.0808 4.17583C15.0775 4.1825 14.8992 4.7 14.7267 5.19916C14.7267 5.19916 13.3675 5 12.5 5C11.6325 5 10.2875 5.19666 10.2875 5.19666ZM9.16668 15.8333C8.24584 15.8333 7.50001 14.7225 7.50001 13.3508C7.50001 11.9792 8.24584 10.8683 9.16668 10.8683C10.0908 10.7308 10.8133 11.9792 10.8333 13.3508C10.8333 14.7225 10.0875 15.8333 9.16668 15.8333ZM15.8333 15.8333C14.9125 15.8333 14.1667 14.715 14.1667 13.3358C14.1667 11.9567 14.9125 10.8383 15.8333 10.8383C16.7542 10.8383 17.5 11.9567 17.5 13.3358C17.5 14.715 16.7542 15.8333 15.8333 15.8333Z" fill="#C5C5C9"/>
</svg>
