<svg width="25" height="25" viewBox="0 0 25 25" fill="none" xmlns="http://www.w3.org/2000/svg">
<path d="M20.9619 3.3203C20.691 3.33225 20.4387 3.41115 20.2165 3.50097C20.0083 3.58469 19.2131 3.92575 17.9606 4.46288C16.707 5.00048 15.0471 5.71314 13.2764 6.4746C9.73497 7.99752 5.75351 9.7118 3.71419 10.5892C3.63751 10.6222 3.36993 10.7076 3.08594 10.9294C2.80194 11.1511 2.5 11.6105 2.5 12.1224C2.5 12.5352 2.69672 12.9453 2.94434 13.1901C3.19195 13.4349 3.45396 13.5559 3.67839 13.6475C4.49269 13.9797 7.01821 15.0132 7.49512 15.2083C7.66295 15.7225 8.57707 18.5188 8.78906 19.2041C8.92881 19.6563 9.06183 19.9396 9.23503 20.1644C9.32162 20.2768 9.42229 20.3753 9.54427 20.4525C9.59303 20.4833 9.64649 20.5071 9.70052 20.529L9.70378 20.5306C9.71623 20.5356 9.72696 20.5441 9.73958 20.5485C9.7634 20.5568 9.77934 20.5578 9.8112 20.5648C9.93814 20.6058 10.0663 20.6315 10.1807 20.6315C10.6683 20.6315 10.9668 20.3629 10.9668 20.3629L10.9847 20.3499L13.4928 18.1803L16.5348 21.0579C16.5777 21.1185 16.9771 21.6667 17.8581 21.6667C18.3812 21.6667 18.7961 21.4042 19.0625 21.1247C19.3289 20.8451 19.4949 20.5515 19.5654 20.1823V20.1807C19.6314 19.8318 22.4349 5.43944 22.4349 5.43944L22.43 5.45897C22.5121 5.08438 22.5336 4.73552 22.443 4.39127C22.3525 4.04701 22.1139 3.7174 21.818 3.54003C21.5222 3.3627 21.2328 3.30835 20.9619 3.3203ZM20.8057 5.06184C20.8017 5.08616 20.8087 5.07393 20.8024 5.10253L20.8008 5.11229L20.7992 5.12206C20.7992 5.12206 18.0304 19.3303 17.9281 19.8714C17.9355 19.8305 17.9013 19.9118 17.8662 19.9609C17.8166 19.9267 17.7148 19.8828 17.7148 19.8828L17.6986 19.8649L13.5433 15.9342L10.6055 18.4733L11.4795 14.9739C11.4795 14.9739 16.943 9.31841 17.2721 8.98925C17.5371 8.72591 17.5928 8.63412 17.5928 8.54328C17.5928 8.42162 17.5294 8.33332 17.3877 8.33332C17.2602 8.33332 17.0887 8.45728 16.9971 8.51561C15.8028 9.2769 10.5599 12.3326 8.20964 13.6995C7.83615 13.5467 5.24139 12.4845 4.36198 12.1256C4.36864 12.1227 4.36645 12.1238 4.37337 12.1208C6.41322 11.2431 10.393 9.52888 13.9339 8.00617C15.7044 7.24482 17.3656 6.53162 18.6182 5.99446C19.8515 5.46556 20.7084 5.10156 20.8057 5.06184Z" fill="#C5C5C9"/>
</svg>
